<svg xmlns="http://www.w3.org/2000/svg" x="0px" y="0px" width="100" height="100" viewBox="0,0,256,256">
<g fill="none" fill-rule="nonzero" stroke="none" stroke-width="1" stroke-linecap="butt" stroke-linejoin="miter" stroke-miterlimit="10" stroke-dasharray="" stroke-dashoffset="0" font-family="none" font-weight="none" font-size="none" text-anchor="none" style="mix-blend-mode: normal"><g transform="scale(5.33333,5.33333)"><path d="M17.398,10.374c0,0 -6.398,6.887 -6.398,19.041c0,10.201 4.005,14.585 7.677,14.585c1.706,0 7.25,-1.215 12.795,-10.533c6.407,-10.767 5.545,-15.8 5.545,-15.8z" fill="#c792be"></path><path d="M32.951,9.205c-2.927,0 -4.39,0.701 -4.39,0.701c-1.722,-3.313 -3.056,-4.906 -7.36,-4.906c-7.748,0 -10.201,5.67 -10.201,7.327c0,0.577 1.076,1.083 3.659,1.083c2.583,0 5.854,-0.701 5.854,-0.701c-0.494,0.947 -0.732,2.102 -0.732,3.504c0,3.504 2.195,6.307 5.122,6.307c4.39,0 6.585,-4.905 6.585,-4.905c0,0 5.122,5.606 6.93,5.606c1.722,0 2.582,-2.484 2.582,-5.798c0,-2.485 -2.023,-8.218 -8.049,-8.218z" fill="#fab1d9"></path><path d="M28,11.742c-0.135,0 -0.271,-0.027 -0.402,-0.085c-0.505,-0.223 -0.735,-0.813 -0.513,-1.318c0.809,-1.837 3.631,-6.264 6.495,-8.171c0.459,-0.308 1.08,-0.182 1.386,0.278c0.307,0.459 0.182,1.08 -0.278,1.386c-2.54,1.692 -5.158,5.917 -5.772,7.313c-0.166,0.374 -0.532,0.597 -0.916,0.597z" fill="#fab1d9"></path><path d="M14.999,32c-0.503,0 -0.937,-0.38 -0.993,-0.892c-0.317,-2.917 0.032,-6.079 1.037,-9.398c0.16,-0.529 0.719,-0.829 1.247,-0.667c0.529,0.16 0.828,0.718 0.667,1.247c-0.926,3.06 -1.25,5.955 -0.963,8.602c0.06,0.55 -0.337,1.043 -0.886,1.103c-0.037,0.003 -0.073,0.005 -0.109,0.005z" fill="#fab1d9"></path></g></g>
</svg>