<?xml version="1.0" encoding="utf-8"?> <svg xmlns="http://www.w3.org/2000/svg" viewBox="109 225 36 36" width="36px" height="32px"> <g id="Walle-female" transform="matrix(1, 0, 0, 1, 94.8809856868229, 227.3360697330263)"> <path class="cls-1" d="M49.72,16.17C49.72,9,41.79,1,32,1S14.28,9,14.28,16.17,22.21,27,32,27,49.72,23.35,49.72,16.17Z" style="fill: rgb(255, 255, 255); stroke: rgb(84, 89, 110); stroke-linecap: round; stroke-linejoin: round; stroke-width: 2px;"/> <path class="cls-2" d="M45,15.34c0-4.45-5.82-9.41-13-9.41s-13,5-13,9.41,5.82,6.73,13,6.73S45,19.8,45,15.34Z" style="fill: rgb(84, 89, 110); stroke: rgb(84, 89, 110); stroke-linecap: round; stroke-linejoin: round; stroke-width: 2px;"/> <ellipse class="cls-5" cx="37" cy="15" rx="3.7" ry="2.47" transform="translate(-2.89 16.55) rotate(-24.3)" style="fill: rgb(85, 166, 255);"/> <ellipse class="cls-5" cx="27" cy="15" rx="2.47" ry="3.7" transform="translate(2.22 33.44) rotate(-65.7)" style="fill: rgb(85, 166, 255);"/> </g> </svg>
