<svg width="1920" height="1080" viewBox="0 0 1920 1080" xmlns="http://www.w3.org/2000/svg"><rect width="1920" height="1080" fill="#15253f"/><path d="M1920,1080C1633.6666666666667,1149,289,1144.3333333333333,0,1080C-289,1015.6666666666666,122.66666666666666,750.1666666666666,186,694C249.33333333333334,637.8333333333334,315.8333333333333,755.3333333333334,380,743C444.1666666666667,730.6666666666666,507.3333333333333,604,571,620C634.6666666666666,636,698,777.5,762,839C826,900.5,890.5,984.5,955,989C1019.5,993.5,1085.5,905.6666666666666,1149,866C1212.5,826.3333333333334,1272.8333333333333,767.6666666666666,1336,751C1399.1666666666667,734.3333333333334,1464.3333333333333,780.1666666666666,1528,766C1591.6666666666667,751.8333333333334,1652.6666666666667,613.6666666666666,1718,666C1783.3333333333333,718.3333333333334,2206.3333333333335,1011,1920,1080C1633.6666666666667,1149,289,1144.3333333333333,0,1080" fill="#dddddd"/></svg>